<?xml version="1.0" standalone="no"?>
<!DOCTYPE svg PUBLIC "-//W3C//DTD SVG 20010904//EN"
 "http://www.w3.org/TR/2001/REC-SVG-20010904/DTD/svg10.dtd">
<svg version="1.0" xmlns="http://www.w3.org/2000/svg"
 width="1544.000000pt" height="1544.000000pt" viewBox="0 0 1544.000000 1544.000000"
 preserveAspectRatio="xMidYMid meet">
<metadata>
Created by potrace 1.14, written by Peter Selinger 2001-2017
</metadata>
<g transform="translate(0.000000,1544.000000) scale(0.100000,-0.100000)"
fill="#000000" stroke="none">
<path d="M7105 15420 c-367 -30 -764 -89 -1053 -155 -59 -14 -147 -34 -197
-46 -246 -56 -679 -194 -980 -313 -1371 -542 -2568 -1480 -3437 -2692 -664
-926 -1117 -1998 -1318 -3124 -85 -477 -118 -864 -118 -1375 1 -417 10 -585
54 -945 169 -1390 714 -2701 1588 -3820 229 -293 634 -728 906 -972 385 -345
824 -666 1260 -924 271 -159 689 -365 995 -489 50 -20 99 -40 110 -45 71 -31
409 -147 580 -199 290 -88 828 -208 1060 -236 27 -3 58 -7 69 -10 20 -4 44 -7
164 -20 26 -3 61 -8 77 -10 17 -2 64 -7 105 -10 41 -4 89 -8 105 -10 221 -25
1075 -26 1225 -1 14 3 61 7 105 10 122 9 178 16 430 51 96 13 213 33 345 60
14 2 39 7 55 10 17 3 41 7 55 10 14 3 36 8 50 11 143 29 446 112 685 186 506
158 1116 429 1547 687 348 208 676 436 963 670 141 115 149 121 305 260 109
98 434 420 530 526 151 166 387 451 465 561 11 15 36 48 56 73 98 126 386 566
476 729 14 26 46 83 71 127 45 79 252 489 252 499 0 3 17 42 39 88 187 402
407 1082 500 1548 12 58 24 116 26 130 12 59 54 310 60 359 4 30 8 61 10 70 1
9 6 45 10 81 3 36 8 76 10 90 4 24 13 112 20 195 5 53 16 224 20 300 5 79 5
635 0 705 -1 30 -6 111 -9 180 -4 69 -9 141 -11 160 -2 19 -6 62 -10 95 -13
128 -46 384 -61 470 -9 50 -18 106 -21 125 -2 19 -20 109 -39 200 -148 700
-363 1313 -680 1935 -517 1016 -1249 1902 -2158 2610 -50 39 -109 84 -132 100
-342 244 -490 341 -759 495 -882 506 -1851 829 -2865 955 -113 14 -216 25
-295 30 -49 4 -106 9 -125 12 -19 3 -228 6 -465 8 -349 3 -472 0 -650 -15z"/>
</g>
</svg>
